<?xml version="1.0" encoding="UTF-8"?>
<svg id="Ebene_1" xmlns="http://www.w3.org/2000/svg" version="1.1" viewBox="0 0 672 191">
  <!-- Generator: Adobe Illustrator 29.5.1, SVG Export Plug-In . SVG Version: 2.1.0 Build 141)  -->
  <defs>
    <style>
      .st0 {
        fill: #e5e6e7;
      }

      .st1 {
        fill: #bdbfc1;
      }

      .st2 {
        fill: #e6ae1e;
      }
    </style>
  </defs>
  <path class="st2" d="M154.2,61c-.3,2.2-3.6,28.9-5.2,38h23.5l20-17,109.9-.2-29.4,108.2h-144.4l-3.6-36-112-5,110.6-7.4-2.6-24.6-39-4,37.9-5.6-.9-8.4h19.4s2.6-20,2.6-20l-95-6,96.5-6,.9-5.9h10.8Z"/>
  <path class="st0" d="M262,0h0c-1.8,12,0,24.5-6,36,12.7-.2,25.8-.1,38,4,.3.5,2.2,2.2,2.2,2.2l-3.2,39.8s-67.1.9-100.5,0c-3.6,1-18.7,17-20,17h-23.5c1.6-9.1,5.7-41.7,5.7-41.7l3.3-26.3-32-3,32.1-3.4,1.8-11.4-82.9-6.1c27.2-1.5,84.7-4.2,84.7-4.2l.3-2.8h100Z"/>
  <path class="st1" d="M294,40c-12.2-4.1-25.2-4.2-38-4,6.1-11.5,4.2-24,6-36,9.2,13.3,23.4,26.6,32,40Z"/>
</svg>