<?xml version="1.0" encoding="UTF-8"?>
<svg id="Ebene_1" xmlns="http://www.w3.org/2000/svg" version="1.1" viewBox="0 0 38.8 38">
  <!-- Generator: Adobe Illustrator 29.5.1, SVG Export Plug-In . SVG Version: 2.1.0 Build 141)  -->
  <defs>
    <style>
      .st0 {
        fill: #7d5fe6;
      }
    </style>
  </defs>
  <g id="Logo">
    <g id="Group">
      <path id="Vector" class="st0" d="M37.6,0v25.3c0,3.4-1.3,6.6-3.7,9-2.3,2.4-5.5,3.7-8.9,3.7h-5V12.7c0-3.4,1.3-6.6,3.7-9,2.4-2.4,5.5-3.7,8.9-3.7h5Z"/>
      <path id="Vector_2" class="st0" d="M0,20.3h5c3.3,0,6.5,1.3,8.9,3.7,2.3,2.4,3.7,5.6,3.7,9v5.1h-5c-3.3,0-6.5-1.3-8.9-3.7-2.3-2.4-3.7-5.6-3.7-9v-5.1Z"/>
    </g>
  </g>
</svg>